<svg width="50" height="50" viewBox="0 0 50 50" fill="none" xmlns="http://www.w3.org/2000/svg">
<path d="M6 5H15C17.7614 5 20 7.23858 20 10V17H7C6.44772 17 6 16.5523 6 16V5Z" fill="#F4B2B0"/>
<path d="M7.5 19H15.5C16.0523 19 16.5 19.4477 16.5 20V27C16.5 27.5523 16.0523 28 15.5 28H12.5C9.73858 28 7.5 25.7614 7.5 23V19Z" fill="#F4B2B0"/>
<path d="M27 40C27 35.0294 31.0294 31 36 31H41C43.2091 31 45 32.7909 45 35V44H31C28.7909 44 27 42.2091 27 40V40Z" fill="#F4B2B0"/>
<rect x="7" y="16" width="12" height="3" fill="#F4B2B0"/>
<path d="M11 24H16.5C18.433 24 20 25.567 20 27.5V33H13.5C12.1193 33 11 31.8807 11 30.5V24Z" fill="#F4B2B0"/>
<path d="M20 31H24.5C26.433 31 28 32.567 28 34.5V41H23.5C21.567 41 20 39.433 20 37.5V31Z" fill="#F4B2B0"/>
<path d="M14 33H21V36H16.5C15.1193 36 14 34.8807 14 33.5V33Z" fill="#F4B2B0"/>
<path d="M17 35H23V38H18C17.4477 38 17 37.5523 17 37V35Z" fill="#F4B2B0"/>
<path d="M19 29H20C21.6569 29 23 30.3431 23 32V32H19V29Z" fill="#F4B2B0"/>
<rect x="27" y="33" width="2" height="9" fill="#F4B2B0"/>
<rect x="33" y="30" width="5" height="3" fill="#F4B2B0"/>
<path d="M5.46875 5.46875C5.46875 32.0312 17.9688 44.5312 44.5312 44.5312V32.0312L33.5938 28.9062L30.4688 33.5938C24.2188 33.5938 16.4062 25.7812 16.4062 19.5312L21.0938 16.4062L17.9688 5.46875H5.46875Z" stroke="#B3404A" stroke-width="2" stroke-linecap="round" stroke-linejoin="round"/>
</svg>
